<svg width="64" height="64" viewBox="0 0 64 64" fill="none" xmlns="http://www.w3.org/2000/svg">
<path d="M54.668 21.304C54.3108 20.9551 53.8313 20.7598 53.332 20.7598C52.8327 20.7598 52.3532 20.9551 51.996 21.304L32 40.796L12.008 21.304C11.6508 20.9551 11.1713 20.7598 10.672 20.7598C10.1727 20.7598 9.69319 20.9551 9.33599 21.304C9.16182 21.4736 9.02339 21.6764 8.92886 21.9003C8.83433 22.1243 8.78564 22.3649 8.78564 22.608C8.78564 22.8511 8.83433 23.0917 8.92886 23.3157C9.02339 23.5397 9.16182 23.7424 9.33599 23.912L30.604 44.64C30.9775 45.0041 31.4784 45.2078 32 45.2078C32.5216 45.2078 33.0225 45.0041 33.396 44.64L54.664 23.912C54.8382 23.7424 54.9766 23.5397 55.0711 23.3157C55.1657 23.0917 55.2144 22.8511 55.2144 22.608C55.2144 22.3649 55.1657 22.1243 55.0711 21.9003C54.9766 21.6764 54.8382 21.4736 54.664 21.304H54.668Z" fill="white"/>
</svg>
