<svg width="64" height="64" viewBox="0 0 64 64" fill="none" xmlns="http://www.w3.org/2000/svg">
<path d="M42.696 9.332C43.0449 9.68919 43.2402 10.1687 43.2402 10.668C43.2402 11.1673 43.0449 11.6468 42.696 12.004L23.204 32L42.696 51.992C43.0449 52.3492 43.2402 52.8287 43.2402 53.328C43.2402 53.8273 43.0449 54.3068 42.696 54.664C42.5264 54.8382 42.3237 54.9766 42.0997 55.0711C41.8757 55.1657 41.6351 55.2144 41.392 55.2144C41.1489 55.2144 40.9083 55.1657 40.6843 55.0711C40.4603 54.9766 40.2576 54.8382 40.088 54.664L19.36 33.396C18.9959 33.0225 18.7922 32.5216 18.7922 32C18.7922 31.4784 18.9959 30.9775 19.36 30.604L40.088 9.336C40.2576 9.16183 40.4603 9.02339 40.6843 8.92887C40.9083 8.83434 41.1489 8.78564 41.392 8.78564C41.6351 8.78564 41.8757 8.83434 42.0997 8.92887C42.3237 9.02339 42.5264 9.16183 42.696 9.336V9.332Z" fill="#DCDCFF"/>
</svg>
