<svg width="64" height="64" viewBox="0 0 64 64" fill="none" xmlns="http://www.w3.org/2000/svg">
<path d="M21.304 9.332C20.9551 9.68919 20.7598 10.1687 20.7598 10.668C20.7598 11.1673 20.9551 11.6468 21.304 12.004L40.796 32L21.304 51.992C20.9551 52.3492 20.7598 52.8287 20.7598 53.328C20.7598 53.8273 20.9551 54.3068 21.304 54.664C21.4736 54.8382 21.6763 54.9766 21.9003 55.0711C22.1243 55.1657 22.3649 55.2144 22.608 55.2144C22.8511 55.2144 23.0917 55.1657 23.3157 55.0711C23.5397 54.9766 23.7424 54.8382 23.912 54.664L44.64 33.396C45.0041 33.0225 45.2078 32.5216 45.2078 32C45.2078 31.4784 45.0041 30.9775 44.64 30.604L23.912 9.336C23.7424 9.16183 23.5397 9.02339 23.3157 8.92887C23.0917 8.83434 22.8511 8.78564 22.608 8.78564C22.3649 8.78564 22.1243 8.83434 21.9003 8.92887C21.6763 9.02339 21.4736 9.16183 21.304 9.336V9.332Z" fill="#DCDCFF"/>
</svg>
